<svg width="30" height="30" viewBox="0 0 30 30" fill="none" xmlns="http://www.w3.org/2000/svg">
<path d="M8.40636 22.6771V23.4101C8.18802 23.1882 8.09595 22.9551 8.09595 22.6771V7.32292C8.09595 7.01924 8.19532 6.77795 8.41482 6.55845C8.63925 6.33402 8.87479 6.23958 9.15636 6.23958H17.1415L21.9272 11.0252V22.6771C21.9272 22.9587 21.8328 23.1942 21.6083 23.4186C21.3888 23.6381 21.1475 23.7375 20.8439 23.7375H9.15636C8.87835 23.7375 8.64522 23.6454 8.42334 23.4271H9.15636H20.8439H21.5939V22.6771V11.5854V10.8354H20.8439H17.2626V7.32292V6.57292H16.5126H9.15636H8.40636V7.32292V11.5854V22.6771Z" fill="#1B1C1E" stroke="#1B1C1E" stroke-width="1.5"/>
</svg>
